<?xml version="1.0" standalone="no"?>
<!DOCTYPE svg PUBLIC "-//W3C//DTD SVG 20010904//EN"
 "http://www.w3.org/TR/2001/REC-SVG-20010904/DTD/svg10.dtd">
<svg version="1.0" xmlns="http://www.w3.org/2000/svg"
 width="700.000000pt" height="700.000000pt" viewBox="0 0 700.000000 700.000000"
 preserveAspectRatio="xMidYMid meet">
<metadata>
Created by potrace 1.14, written by Peter Selinger 2001-2017
</metadata>
<g transform="translate(0.000000,700.000000) scale(0.100000,-0.100000)"
fill="#000000" stroke="none">
<path d="M3278 6995 c-1 -1 -42 -5 -89 -9 -47 -4 -95 -8 -105 -10 -10 -2 -41
-7 -69 -10 -335 -44 -715 -158 -1030 -312 -180 -87 -448 -247 -555 -331 -8 -6
-51 -40 -95 -74 -340 -264 -650 -624 -875 -1014 -47 -81 -170 -327 -170 -339
0 -3 -11 -29 -24 -58 -60 -133 -155 -432 -181 -569 -3 -13 -11 -58 -20 -99
-29 -147 -36 -200 -52 -370 -15 -165 -8 -592 12 -711 2 -13 6 -46 9 -74 9 -78
22 -152 51 -285 21 -96 91 -339 114 -395 5 -11 25 -65 46 -120 64 -170 213
-461 314 -615 491 -745 1217 -1268 2061 -1486 146 -38 269 -63 389 -80 25 -3
57 -8 71 -10 163 -25 682 -25 842 1 13 2 46 7 73 10 72 10 86 12 120 19 17 3
44 8 60 11 343 65 740 212 1039 384 49 28 93 51 97 51 5 0 9 5 9 10 0 6 5 10
10 10 15 0 220 141 330 227 152 118 324 280 450 422 36 41 70 79 76 85 6 6 48
61 94 121 150 197 277 405 383 628 26 53 47 99 47 102 0 2 11 28 24 57 57 127
151 421 182 573 17 81 54 301 59 350 4 33 9 71 11 85 9 47 11 525 4 605 -15
157 -21 210 -25 225 -2 8 -7 35 -10 60 -17 129 -80 384 -136 552 -348 1036
-1168 1857 -2204 2206 -168 57 -420 119 -555 137 -19 3 -46 7 -60 10 -13 2
-52 7 -86 11 -33 3 -74 8 -90 10 -32 5 -540 14 -546 9z m-68 -2652 l0 -318
-532 -263 -531 -262 169 -84 c93 -45 332 -163 532 -261 l362 -179 0 -319 0
-318 -22 7 c-13 4 -56 24 -96 45 -40 21 -74 38 -75 37 -1 0 -123 59 -272 132
-148 73 -351 172 -450 220 -99 48 -327 160 -507 248 l-328 161 -1 85 c0 48 0
129 0 181 0 52 0 154 0 225 l1 131 338 166 c185 91 400 196 477 233 249 120
819 400 865 425 25 13 51 24 58 24 9 1 12 -69 12 -316z m710 261 c63 -31 201
-98 305 -149 105 -51 312 -152 460 -225 149 -73 356 -174 460 -225 306 -149
379 -186 388 -194 7 -7 10 -311 7 -598 0 -18 -4 -33 -9 -33 -5 0 -152 -70
-327 -156 -176 -86 -420 -206 -544 -266 -124 -61 -313 -153 -420 -205 -107
-53 -248 -122 -313 -154 -65 -33 -122 -59 -127 -59 -6 0 -10 121 -10 318 l0
318 293 144 c439 216 744 367 756 375 10 6 -249 138 -836 426 l-213 104 0 318
c0 174 4 317 8 317 4 0 59 -25 122 -56z"/>
</g>
</svg>
